<?xml version="1.0" standalone="no"?>
<!DOCTYPE svg PUBLIC "-//W3C//DTD SVG 20010904//EN"
 "http://www.w3.org/TR/2001/REC-SVG-20010904/DTD/svg10.dtd">
<svg version="1.0" xmlns="http://www.w3.org/2000/svg"
 width="512.000000pt" height="512.000000pt" viewBox="0 0 512.000000 512.000000"
 preserveAspectRatio="xMidYMid meet">
<metadata>
Created by potrace 1.11, written by Peter Selinger 2001-2013
</metadata>
<g transform="translate(0.000000,512.000000) scale(0.100000,-0.100000)"
fill="#000000" stroke="none">
<path d="M2366 4922 c-3 -5 -21 -10 -38 -10 -18 0 -46 -5 -61 -11 -16 -6 -33
-9 -37 -6 -5 3 -23 -7 -39 -22 -30 -28 -31 -31 -40 -146 -1 -4 -7 -7 -13 -5
-7 1 -35 -6 -61 -16 -53 -20 -67 -42 -67 -106 0 -31 7 -45 35 -71 l34 -33 -2
-127 c-1 -70 -5 -130 -7 -132 -6 -7 -155 -45 -203 -52 -19 -3 -105 -24 -189
-46 -84 -22 -162 -42 -173 -44 -11 -3 -67 -16 -125 -31 -58 -14 -115 -28 -127
-30 -52 -10 -168 -55 -184 -71 -20 -20 -304 -583 -301 -595 1 -5 -2 -8 -8 -8
-5 0 -10 -4 -10 -10 0 -14 -53 -124 -63 -131 -5 -3 -7 -10 -5 -14 3 -7 -84
-35 -147 -49 -80 -17 -142 -67 -230 -186 -16 -22 -42 -55 -57 -73 -16 -17 -28
-34 -28 -38 0 -19 -51 -58 -94 -73 -27 -8 -64 -28 -83 -42 l-35 -27 6 -99 c6
-115 -12 -92 183 -239 122 -90 133 -102 134 -131 0 -18 2 -42 3 -53 12 -92 19
-142 22 -160 2 -11 7 -40 10 -65 7 -58 11 -86 19 -135 3 -22 7 -53 10 -70 2
-16 11 -83 19 -147 9 -64 20 -128 25 -141 5 -14 30 -41 55 -62 25 -20 45 -40
45 -43 -3 -18 3 -30 20 -49 11 -12 27 -37 35 -56 15 -36 62 -70 102 -72 20 -2
98 -56 188 -134 65 -55 249 -205 347 -283 126 -98 251 -197 279 -218 39 -29
93 -72 100 -80 3 -3 38 -30 78 -60 40 -30 75 -65 78 -76 3 -12 21 -36 39 -54
31 -30 40 -33 100 -35 51 -2 74 -8 97 -25 28 -20 33 -21 76 -10 81 22 89 31
103 116 14 80 19 86 83 98 14 2 33 9 43 14 14 8 35 5 78 -11 85 -29 224 -31
313 -5 37 11 72 24 77 28 6 4 28 13 50 19 22 7 49 16 60 21 11 5 46 18 78 30
144 51 174 62 206 77 18 8 61 17 95 19 141 9 212 32 268 86 23 22 47 41 53 42
5 1 53 16 105 33 144 48 133 51 136 -42 2 -66 9 -94 38 -160 19 -44 40 -81 46
-83 15 -5 80 65 75 81 -2 6 -6 76 -9 155 l-4 143 38 15 c28 12 42 25 53 52 12
29 23 40 54 49 21 6 52 17 68 24 17 7 35 13 40 15 42 10 262 87 269 94 5 5 24
0 43 -10 35 -19 57 -17 125 11 33 13 44 43 64 179 6 46 16 97 20 112 3 10 7
30 10 45 2 16 7 44 11 63 3 19 7 42 8 50 1 8 4 29 8 45 16 71 21 118 23 248 2
76 6 142 9 147 3 6 15 10 26 10 25 0 196 58 230 78 15 8 31 29 36 46 11 39 9
194 -3 206 -15 14 -175 110 -184 110 -12 0 -32 36 -75 135 -59 139 -99 192
-175 236 -111 64 -114 69 -155 242 -2 10 -7 27 -10 37 -3 10 -8 27 -10 37 -9
43 -78 294 -98 357 -21 66 -67 130 -107 149 -8 4 -24 13 -35 20 -11 7 -58 34
-105 60 -142 80 -171 97 -266 153 -51 30 -94 54 -97 54 -3 0 -36 17 -74 39
-137 77 -471 253 -644 338 l-96 48 4 170 c5 200 -3 237 -57 272 -19 12 -41 28
-48 34 -14 11 -53 14 -92 5 -14 -4 -41 -9 -60 -12 -19 -3 -37 -7 -40 -9 -3 -2
-26 -6 -50 -10 -25 -4 -47 -8 -48 -10 -9 -8 -72 22 -119 56 -28 21 -57 40 -65
41 -7 2 -16 7 -19 12 -4 4 -9 4 -13 -2z"/>
</g>
</svg>
